# xmcd CD database file
#
# Track frame offsets:
#	150
#	18152
#	39335
#	57950
#	77900
#	99305
#	114739
#	127514
#	145349
#	163427
#	179891
#	211013
#
# Disc length: 3068 seconds
#
# Revision: 0
# Processed by: cddbd v1.5.2PL0 Copyright (c) Steve Scherf et al.
# Submitted via: CDex 1.51
#
DISCID=9f0bfa0c
DTITLE=Mario Lecaros - Septiembre Jazz
DYEAR=1998
DGENRE=Jazz
TTITLE0=Volver a los 17
TTITLE1=Plegaria a un Labrador
TTITLE2=Valparaiso, yo nunca he sabido
TTITLE3=Gracias a la Vida
TTITLE4=Tonadas de Manuel Rodriguez
TTITLE5=La Cueca del Retorno
TTITLE6=El Corralero
TTITLE7=A Motu Yaney
TTITLE8=El Solitario
TTITLE9=Mi abuela bailo sirilla
TTITLE10=Tonada Pa La Pachamama
TTITLE11=Lejos del Amor
EXTD=YEAR: 1998
EXTT0=
EXTT1=
EXTT2=
EXTT3=
EXTT4=
EXTT5=
EXTT6=
EXTT7=
EXTT8=
EXTT9=
EXTT10=
EXTT11=
PLAYORDER=
